<?xml version="1.0" encoding="UTF-8" standalone="no"?>
<svg
   xmlns:dc="http://purl.org/dc/elements/1.1/"
   xmlns:cc="http://creativecommons.org/ns#"
   xmlns:rdf="http://www.w3.org/1999/02/22-rdf-syntax-ns#"
   xmlns:svg="http://www.w3.org/2000/svg"
   xmlns="http://www.w3.org/2000/svg"
   height="64"
   width="64"
   id="svg8"
   xml:space="preserve"
   enable-background="new 0 0 100 100"
   viewBox="0 0 64 64"
   y="0px"
   x="0px"
   version="1.1"><metadata
     id="metadata14"><rdf:RDF><cc:Work
         rdf:about=""><dc:format>image/svg+xml</dc:format><dc:type
           rdf:resource="http://purl.org/dc/dcmitype/StillImage" /><dc:title></dc:title></cc:Work></rdf:RDF></metadata><defs
     id="defs12" /><g
     transform="matrix(0.82695886,0,0,0.82695886,-9.5447592,-10.701675)"
     id="g6"><path
       style="fill:#000000"
       id="path2"
       d="m 58.258,72.923 -5.52,5.419 V 54.498 c 0,-1.499 -0.959,-2.441 -2.501,-2.441 -1.541,0 -2.501,0.942 -2.501,2.441 V 78.54 l -5.721,-5.617 c -1.009,-0.991 -2.491,-0.991 -3.5,0 -1.001,0.982 -1.001,2.413 0,3.396 l 9.871,9.692 c 0.548,0.537 1.018,0.743 1.75,0.743 0.384,0 0.689,-0.058 0.959,-0.176 0.261,-0.114 0.512,-0.294 0.791,-0.566 l 9.871,-9.692 c 1.001,-0.983 1.001,-2.413 0,-3.396 -1.008,-0.992 -2.49,-0.992 -3.499,-0.001 z" /><path
       style="fill:#000000"
       id="path4"
       d="M 75.547,36.123 C 74.416,25.046 65.15,16.52 53.528,16.52 c -8.719,0 -16.643,5.27 -20.36,13.171 -1.062,-0.172 -1.836,-0.248 -2.673,-0.248 -10.426,0 -18.953,8.372 -18.953,18.594 0,10.222 8.528,18.594 18.953,18.594 h 6.581 c 1.541,0 2.501,-0.942 2.501,-2.441 0,-1.499 -0.96,-2.441 -2.501,-2.441 h -6.581 c -7.672,0 -13.951,-6.165 -13.951,-13.712 0,-7.547 6.279,-13.712 13.951,-13.712 0.8,0 1.201,0.007 1.7,0.042 0.707,0.05 1.312,0.148 1.835,0.32 0.018,0.003 0.038,-0.003 0.056,0 1.319,0.398 2.755,-0.281 3.245,-1.485 2.04,-7.027 8.587,-11.799 16.197,-11.799 9.646,0 17.242,7.457 17.242,16.943 0,1.499 0.96,2.441 2.501,2.441 6.026,0 10.661,4.55 10.661,10.482 0,5.932 -4.634,10.482 -10.661,10.482 H 63.4 c -1.541,0 -2.501,0.942 -2.501,2.441 0,1.499 0.96,2.441 2.501,2.441 h 9.871 c 8.78,0 15.663,-6.757 15.663,-15.363 C 88.933,43.428 83.2,37.184 75.547,36.123 Z" /></g></svg>