<?xml version="1.0" encoding="UTF-8" standalone="no"?>
<svg
   xmlns:dc="http://purl.org/dc/elements/1.1/"
   xmlns:cc="http://creativecommons.org/ns#"
   xmlns:rdf="http://www.w3.org/1999/02/22-rdf-syntax-ns#"
   xmlns:svg="http://www.w3.org/2000/svg"
   xmlns="http://www.w3.org/2000/svg"
   version="1.1"
   id="svg2"
   viewBox="0 0 60 59.999997"
   height="63.999996"
   width="64">
  <defs
     id="defs4" />
  <metadata
     id="metadata7">
    <rdf:RDF>
      <cc:Work
         rdf:about="">
        <dc:format>image/svg+xml</dc:format>
        <dc:type
           rdf:resource="http://purl.org/dc/dcmitype/StillImage" />
        <dc:title></dc:title>
      </cc:Work>
    </rdf:RDF>
  </metadata>
  <g
     transform="translate(0,-993.07116)"
     id="layer1">
    <path
       d="M 29.997286,993.7801 C 13.433206,993.7801 0,1007.226 0,1023.8133 c 0,13.267 8.5951159,24.5244 20.516314,28.4976 1.500975,0.2746 2.047952,-0.6527 2.047952,-1.4492 0,-0.7135 -0.02581,-2.6014 -0.04056,-5.1069 -8.344658,1.8142 -10.10531,-4.0265 -10.10531,-4.0265 -1.364678,-3.4698 -3.3315979,-4.3936 -3.3315979,-4.3936 -2.7238388,-1.8621 0.2062687,-1.8252 0.2062687,-1.8252 3.0111552,0.2121 4.5949922,3.0956 4.5949922,3.0956 2.675963,4.5888 7.022326,3.2633 8.731414,2.4944 0.272567,-1.9395 1.047907,-3.2633 1.904295,-4.0136 -6.661352,-0.7596 -13.665271,-3.3352 -13.665271,-14.8434 0,-3.2798 1.169471,-5.9587 3.0885,-8.0585 -0.309396,-0.7596 -1.338896,-3.8127 0.294676,-7.9481 0,0 2.51757,-0.8076 8.248876,3.0771 2.392349,-0.6656 4.959639,-0.9975 7.510366,-1.0103 2.548897,0.015 5.114358,0.3447 7.510379,1.0103 5.727619,-3.8847 8.241517,-3.0771 8.241517,-3.0771 1.637244,4.1354 0.607759,7.1885 0.300192,7.9481 1.922717,2.0998 3.082969,4.7787 3.082969,8.0585 0,11.5377 -7.014951,14.0765 -13.696569,14.8194 1.075533,0.9274 2.035048,2.76 2.035048,5.5624 0,4.0135 -0.03687,7.2529 -0.03687,8.2374 0,0.8039 0.541461,1.7385 2.062688,1.4455 C 51.412244,1048.3266 60,1037.0785 60,1023.8133 60,1007.226 46.566794,993.7801 29.997198,993.7801"
       style="fill:#1b1817;fill-opacity:1;fill-rule:evenodd;stroke:none;stroke-width:0.18426698"
       id="path16" />
  </g>
</svg>
