<?xml version="1.0" encoding="UTF-8" standalone="no"?>
<svg
   xmlns:dc="http://purl.org/dc/elements/1.1/"
   xmlns:cc="http://creativecommons.org/ns#"
   xmlns:rdf="http://www.w3.org/1999/02/22-rdf-syntax-ns#"
   xmlns:svg="http://www.w3.org/2000/svg"
   xmlns="http://www.w3.org/2000/svg"
   height="64"
   width="64"
   id="svg10"
   xml:space="preserve"
   enable-background="new 0 0 64 64"
   viewBox="0 0 64 64"
   y="0px"
   x="0px"
   version="1.1"><metadata
     id="metadata16"><rdf:RDF><cc:Work
         rdf:about=""><dc:format>image/svg+xml</dc:format><dc:type
           rdf:resource="http://purl.org/dc/dcmitype/StillImage" /><dc:title></dc:title></cc:Work></rdf:RDF></metadata><defs
     id="defs14" /><g
     transform="matrix(1.072422,0,0,1.072422,-2.3171949,-2.3185764)"
     id="g8"><path
       style="fill:#000000"
       id="path2"
       d="m 26.286,61.84 v 0 c -0.736,0 -1.293,-0.429 -1.696,-0.802 -0.485,-0.436 -0.983,-0.905 -1.461,-1.372 -1.217,-1.149 -1.323,-2.026 -0.405,-3.46 0.305,-0.475 0.623,-0.94 0.943,-1.406 0.504,-0.735 0.98,-1.431 1.405,-2.164 0.29,-0.515 0.528,-1.071 0.754,-1.655 -0.821,0.255 -1.644,0.028 -2.354,-0.657 -0.635,-0.599 -1.284,-1.207 -1.933,-1.815 -0.638,-0.596 -1.276,-1.194 -1.909,-1.791 -0.643,-0.551 -1.327,-1.142 -2.009,-1.734 -0.65,-0.563 -1.299,-1.124 -1.948,-1.683 -0.757,-0.634 -1.062,-1.419 -0.892,-2.262 -0.558,0.286 -1.087,0.583 -1.576,0.93 -0.675,0.491 -1.316,1.038 -1.996,1.617 -0.429,0.366 -0.858,0.731 -1.296,1.083 -0.501,0.4 -1.047,0.79 -1.741,0.79 -0.717,0 -1.262,-0.416 -1.759,-0.842 C 5.912,44.203 5.395,43.756 4.898,43.308 3.774,42.326 3.625,41.326 4.426,40.078 l 0.323,-0.489 c 0.856,-1.294 1.74,-2.633 2.669,-3.906 3.026,-4.183 6.874,-6.758 11.436,-7.649 2.125,-0.423 3.77,-1.397 5.498,-3.255 3.604,-3.858 7.923,-8.39 12.647,-12.758 2.795,-2.601 5.778,-4.771 8.866,-6.45 L 46.003,5.439 46.309,5.344 C 49.481,3.902 53.045,2.8 56.35,2.24 c 0.29,-0.051 0.575,-0.078 0.839,-0.078 0.988,0 1.59,0.374 1.938,0.728 0.513,0.406 1.045,1.195 0.937,2.705 -0.209,3.304 -0.917,6.899 -1.995,10.14 l 10e-4,0.02 -0.102,0.452 -0.118,0.148 c -1.349,3.253 -3.195,6.449 -5.491,9.502 -3.843,5.145 -7.9,9.918 -11.361,13.907 -1.67,1.915 -2.466,3.653 -2.665,5.814 -0.41,4.626 -2.568,8.723 -6.415,12.173 -1.169,1.059 -2.413,2.081 -3.616,3.071 l -0.425,0.35 c -0.395,0.315 -0.921,0.668 -1.591,0.668 z m -1.838,-4.078 c 0.054,0.059 0.136,0.142 0.261,0.26 0.47,0.46 0.945,0.905 1.419,1.333 0.074,0.069 0.131,0.117 0.174,0.15 0.037,-0.025 0.083,-0.059 0.139,-0.104 l 0.414,-0.341 c 1.183,-0.973 2.406,-1.979 3.538,-3.005 3.407,-3.055 5.314,-6.648 5.671,-10.684 0.243,-2.644 1.235,-4.834 3.215,-7.105 3.432,-3.956 7.455,-8.689 11.258,-13.778 2.198,-2.924 3.959,-5.975 5.237,-9.074 V 15.41 l 0.069,-0.203 C 56.897,12.098 57.59,8.629 57.792,5.44 57.828,4.933 57.741,4.709 57.707,4.67 L 57.5,4.483 v 0 c -0.004,0 -0.087,-0.043 -0.31,-0.043 -0.138,0 -0.288,0.016 -0.45,0.045 -3.14,0.532 -6.522,1.581 -9.532,2.954 l -0.102,0.053 c -2.974,1.598 -5.853,3.684 -8.556,6.199 -4.673,4.321 -8.956,8.815 -12.53,12.641 -2.05,2.205 -4.125,3.42 -6.725,3.938 -3.98,0.778 -7.355,3.051 -10.034,6.753 -0.901,1.233 -1.77,2.55 -2.611,3.822 l -0.315,0.476 c -0.035,0.054 -0.061,0.1 -0.081,0.136 0.037,0.037 0.087,0.085 0.156,0.145 0.487,0.438 0.979,0.864 1.471,1.271 0.139,0.119 0.235,0.196 0.301,0.245 C 8.25,43.072 8.348,43 8.488,42.888 8.907,42.552 9.318,42.202 9.73,41.85 c 0.682,-0.58 1.387,-1.181 2.143,-1.732 0.921,-0.653 1.902,-1.132 2.851,-1.596 l 0.101,-0.049 c 0.257,-0.126 0.926,-0.422 1.545,-0.422 0.513,0 0.847,0.199 1.038,0.365 0.908,0.792 0.214,1.98 -0.246,2.766 l -0.075,0.129 c -0.037,0.069 -0.055,0.116 -0.063,0.143 0.016,0.009 0.053,0.051 0.122,0.109 0.663,0.569 1.314,1.133 1.966,1.698 0.681,0.589 1.362,1.179 2.042,1.764 0.67,0.631 1.306,1.226 1.942,1.821 0.652,0.61 1.303,1.221 1.95,1.83 0.07,0.069 0.118,0.103 0.145,0.12 0.013,-0.012 0.058,-0.035 0.122,-0.079 0.073,-0.05 0.148,-0.106 0.226,-0.163 0.414,-0.306 0.981,-0.726 1.688,-0.799 l 0.121,-0.006 h 0.594 l 0.37,0.506 c 0.516,0.739 0.066,2.403 0.06,2.418 l -0.045,0.123 c -0.36,0.986 -0.732,2.006 -1.275,2.971 -0.475,0.821 -0.998,1.585 -1.505,2.324 -0.307,0.447 -0.613,0.893 -0.904,1.347 -0.096,0.148 -0.157,0.252 -0.195,0.324 z" /><path
       style="fill:#000000"
       id="path4"
       d="m 30.988,37.482 c -0.983,0 -1.927,-0.363 -2.659,-1.022 -0.789,-0.71 -1.254,-1.684 -1.31,-2.745 -0.056,-1.061 0.305,-2.079 1.016,-2.868 0.752,-0.836 1.83,-1.315 2.955,-1.315 0.983,0 1.927,0.363 2.659,1.021 1.628,1.466 1.76,3.985 0.294,5.614 -0.753,0.835 -1.83,1.315 -2.955,1.315 z m 0.002,-7.039 c -0.868,0 -1.697,0.369 -2.277,1.014 -0.548,0.608 -0.826,1.393 -0.783,2.21 0.043,0.817 0.402,1.569 1.01,2.115 1.209,1.09 3.238,0.982 4.326,-0.226 1.13,-1.255 1.028,-3.196 -0.227,-4.326 -0.564,-0.507 -1.292,-0.787 -2.049,-0.787 z" /><path
       style="fill:#000000"
       id="path6"
       d="m 41.502,27.808 c -1.322,0 -2.592,-0.487 -3.575,-1.373 -1.06,-0.955 -1.686,-2.267 -1.761,-3.692 -0.075,-1.425 0.41,-2.795 1.367,-3.856 1.011,-1.124 2.46,-1.769 3.973,-1.769 1.322,0 2.592,0.487 3.575,1.372 1.06,0.955 1.686,2.267 1.761,3.692 0.075,1.425 -0.41,2.795 -1.367,3.856 -1.011,1.125 -2.459,1.77 -3.973,1.77 z m 0.004,-9.778 c -1.255,0 -2.457,0.535 -3.296,1.467 -0.793,0.88 -1.196,2.016 -1.133,3.199 0.061,1.182 0.58,2.27 1.461,3.063 0.815,0.734 1.869,1.139 2.965,1.139 1.255,0 2.457,-0.535 3.296,-1.467 0.793,-0.88 1.196,-2.016 1.133,-3.199 -0.061,-1.182 -0.58,-2.27 -1.461,-3.063 -0.816,-0.735 -1.868,-1.139 -2.965,-1.139 z" /></g></svg>